# xmcd CD database file
#
# Track frame offsets:
#	150
#	17107
#	36632
#	51000
#	72040
#	91840
#	115012
#	136152
#
# Disc length: 2110 seconds
#
# Revision: 0
# Processed by: cddbd v1.5.1PL0 Copyright (c) Steve Scherf et al.
# Submitted via: CDex 1.51
#
DISCID=63083c08
DTITLE=Varios-Salsa - Salsa mix
DYEAR=1900
DGENRE=Salsa
TTITLE0=No hay chance
TTITLE1=Me vas a echar de menos
TTITLE2=No bebo mas
TTITLE3=Quiero llenarte toda
TTITLE4=Volcan
TTITLE5=Que locura enamorarme
TTITLE6=Plato de segunda mesa
TTITLE7=Lobo domesticado
EXTD=
EXTT0=
EXTT1=
EXTT2=
EXTT3=
EXTT4=
EXTT5=
EXTT6=
EXTT7=
PLAYORDER=
